<svg width="19" height="16" viewBox="0 0 19 16" fill="none" xmlns="http://www.w3.org/2000/svg">
<path d="M9.33333 15.451C16.8627 12 18.1176 7.60784 18.1176 5.41176C18.1176 2.90196 16.549 0.0784302 13.7255 0.0784302C10.5882 0.0784302 9.33333 1.64706 9.33333 1.64706C9.33333 1.64706 8.07843 0.0784302 4.94118 0.0784302C2.11765 0.0784302 0.549019 3.21569 0.549019 5.41176C0.549019 7.60784 1.80392 12 9.33333 15.451ZM9.33333 4.78431C10.902 2.27451 15.2941 1.96078 15.6078 5.09804C15.6078 9.49019 9.33333 12.6275 9.33333 12.6275C9.33333 12.6275 3.05882 9.49019 3.05882 5.09804C3.37255 1.96078 7.76471 2.27451 9.33333 4.78431Z" fill="#292929"/>
</svg>
